<mxfile host="app.diagrams.net" modified="2020-09-27T14:22:35.536Z" agent="5.0 (Windows NT 10.0; Win64; x64) AppleWebKit/537.36 (KHTML, like Gecko) Chrome/85.0.4183.121 Safari/537.36" etag="BDFE_f-LA3n8c32k12XI" version="13.7.5" type="github">
  <diagram id="-Gb5QpNLT0Vc4mODxd_h" name="Page-1">
    <mxGraphModel dx="1038" dy="531" grid="1" gridSize="10" guides="1" tooltips="1" connect="1" arrows="1" fold="1" page="1" pageScale="1" pageWidth="850" pageHeight="1100" math="0" shadow="0">
      <root>
        <mxCell id="0" />
        <mxCell id="1" parent="0" />
        <mxCell id="fuQmgK-MwJ8_AEL-iyBa-72" value="" style="swimlane;html=1;childLayout=stackLayout;startSize=0;rounded=0;shadow=0;comic=0;labelBackgroundColor=none;strokeWidth=1;fontFamily=Verdana;fontSize=12;align=center;" parent="1" vertex="1">
          <mxGeometry x="80" y="30" width="940" height="2110" as="geometry" />
        </mxCell>
        <mxCell id="fuQmgK-MwJ8_AEL-iyBa-73" style="edgeStyle=none;rounded=0;html=1;labelBackgroundColor=none;startArrow=none;startFill=0;startSize=5;endArrow=classicThin;endFill=1;endSize=5;jettySize=auto;orthogonalLoop=1;strokeWidth=1;fontFamily=Verdana;fontSize=12" parent="fuQmgK-MwJ8_AEL-iyBa-72" edge="1">
          <mxGeometry relative="1" as="geometry">
            <mxPoint x="180" y="363.0434782608695" as="sourcePoint" />
          </mxGeometry>
        </mxCell>
        <mxCell id="fuQmgK-MwJ8_AEL-iyBa-183" value="" style="edgeStyle=orthogonalEdgeStyle;rounded=0;orthogonalLoop=1;jettySize=auto;html=1;endArrow=open;endFill=0;" parent="fuQmgK-MwJ8_AEL-iyBa-72" source="fuQmgK-MwJ8_AEL-iyBa-181" target="fuQmgK-MwJ8_AEL-iyBa-182" edge="1">
          <mxGeometry relative="1" as="geometry" />
        </mxCell>
        <mxCell id="fuQmgK-MwJ8_AEL-iyBa-81" value="Admin" style="swimlane;html=1;startSize=20;" parent="fuQmgK-MwJ8_AEL-iyBa-72" vertex="1">
          <mxGeometry width="380" height="2110" as="geometry">
            <mxRectangle width="30" height="1880" as="alternateBounds" />
          </mxGeometry>
        </mxCell>
        <mxCell id="fuQmgK-MwJ8_AEL-iyBa-196" value="Fill in user info (username, email, password, role - TBD)" style="rounded=1;whiteSpace=wrap;html=1;shadow=0;comic=0;labelBackgroundColor=none;strokeWidth=1;fontFamily=Verdana;fontSize=12;align=center;arcSize=50;" parent="fuQmgK-MwJ8_AEL-iyBa-81" vertex="1">
          <mxGeometry x="95" y="360" width="150" height="70" as="geometry" />
        </mxCell>
        <mxCell id="fuQmgK-MwJ8_AEL-iyBa-202" value="" style="group" parent="fuQmgK-MwJ8_AEL-iyBa-81" vertex="1" connectable="0">
          <mxGeometry x="120" y="130" width="100" height="30" as="geometry" />
        </mxCell>
        <mxCell id="fuQmgK-MwJ8_AEL-iyBa-200" value="" style="group" parent="fuQmgK-MwJ8_AEL-iyBa-202" vertex="1" connectable="0">
          <mxGeometry width="100" height="30" as="geometry" />
        </mxCell>
        <mxCell id="fuQmgK-MwJ8_AEL-iyBa-199" value="" style="group" parent="fuQmgK-MwJ8_AEL-iyBa-200" vertex="1" connectable="0">
          <mxGeometry width="100" height="30" as="geometry" />
        </mxCell>
        <mxCell id="fuQmgK-MwJ8_AEL-iyBa-181" value="Log in" style="rounded=1;whiteSpace=wrap;html=1;shadow=0;comic=0;labelBackgroundColor=none;strokeWidth=1;fontFamily=Verdana;fontSize=12;align=center;arcSize=50;" parent="fuQmgK-MwJ8_AEL-iyBa-199" vertex="1">
          <mxGeometry width="100" height="30" as="geometry" />
        </mxCell>
        <mxCell id="fuQmgK-MwJ8_AEL-iyBa-83" value="" style="ellipse;html=1;shape=startState;fillColor=#000000;strokeColor=none;" parent="fuQmgK-MwJ8_AEL-iyBa-81" vertex="1">
          <mxGeometry x="145" y="40" width="30" height="30" as="geometry" />
        </mxCell>
        <mxCell id="vyjxsH1c9zluWixGzXfJ-3" value="Not confirm" style="text;html=1;strokeColor=none;fillColor=none;align=center;verticalAlign=middle;whiteSpace=wrap;rounded=0;" parent="fuQmgK-MwJ8_AEL-iyBa-81" vertex="1">
          <mxGeometry x="120" y="580" width="54" height="20" as="geometry" />
        </mxCell>
        <mxCell id="vyjxsH1c9zluWixGzXfJ-69" value="Confirm" style="text;html=1;strokeColor=none;fillColor=none;align=center;verticalAlign=middle;whiteSpace=wrap;rounded=0;" parent="fuQmgK-MwJ8_AEL-iyBa-81" vertex="1">
          <mxGeometry x="166" y="650" width="54" height="20" as="geometry" />
        </mxCell>
        <mxCell id="fuQmgK-MwJ8_AEL-iyBa-197" value="" style="edgeStyle=orthogonalEdgeStyle;rounded=0;orthogonalLoop=1;jettySize=auto;html=1;endArrow=open;endFill=0;" parent="fuQmgK-MwJ8_AEL-iyBa-72" source="fuQmgK-MwJ8_AEL-iyBa-190" target="fuQmgK-MwJ8_AEL-iyBa-196" edge="1">
          <mxGeometry relative="1" as="geometry" />
        </mxCell>
        <mxCell id="fuQmgK-MwJ8_AEL-iyBa-206" value="" style="edgeStyle=orthogonalEdgeStyle;rounded=0;orthogonalLoop=1;jettySize=auto;html=1;endArrow=open;endFill=0;" parent="fuQmgK-MwJ8_AEL-iyBa-72" source="fuQmgK-MwJ8_AEL-iyBa-196" target="fuQmgK-MwJ8_AEL-iyBa-205" edge="1">
          <mxGeometry relative="1" as="geometry">
            <Array as="points">
              <mxPoint x="170" y="485" />
            </Array>
          </mxGeometry>
        </mxCell>
        <mxCell id="fuQmgK-MwJ8_AEL-iyBa-109" value="Controller" style="swimlane;html=1;startSize=20;" parent="fuQmgK-MwJ8_AEL-iyBa-72" vertex="1">
          <mxGeometry x="380" width="560" height="2110" as="geometry" />
        </mxCell>
        <mxCell id="fuQmgK-MwJ8_AEL-iyBa-223" value="" style="rhombus;whiteSpace=wrap;html=1;" parent="fuQmgK-MwJ8_AEL-iyBa-109" vertex="1">
          <mxGeometry x="-177.5" y="580" width="70" height="60" as="geometry" />
        </mxCell>
        <mxCell id="fuQmgK-MwJ8_AEL-iyBa-229" value="" style="group" parent="fuQmgK-MwJ8_AEL-iyBa-109" vertex="1" connectable="0">
          <mxGeometry x="-190" y="693.5" width="95" height="31" as="geometry" />
        </mxCell>
        <mxCell id="fuQmgK-MwJ8_AEL-iyBa-227" value="Confirm update" style="rounded=1;whiteSpace=wrap;html=1;shadow=0;comic=0;labelBackgroundColor=none;strokeWidth=1;fontFamily=Verdana;fontSize=12;align=center;arcSize=50;" parent="fuQmgK-MwJ8_AEL-iyBa-229" vertex="1">
          <mxGeometry y="1" width="95" height="30" as="geometry" />
        </mxCell>
        <mxCell id="fuQmgK-MwJ8_AEL-iyBa-226" value="" style="edgeStyle=orthogonalEdgeStyle;rounded=0;orthogonalLoop=1;jettySize=auto;html=1;endArrow=open;endFill=0;" parent="fuQmgK-MwJ8_AEL-iyBa-229" edge="1">
          <mxGeometry relative="1" as="geometry">
            <mxPoint x="47.5" y="-53.5" as="sourcePoint" />
            <mxPoint x="47.5" as="targetPoint" />
            <Array as="points">
              <mxPoint x="47.5" />
              <mxPoint x="46.5" y="20" />
            </Array>
          </mxGeometry>
        </mxCell>
        <mxCell id="fuQmgK-MwJ8_AEL-iyBa-231" value="" style="edgeStyle=orthogonalEdgeStyle;rounded=0;orthogonalLoop=1;jettySize=auto;html=1;endArrow=open;endFill=0;" parent="fuQmgK-MwJ8_AEL-iyBa-109" source="fuQmgK-MwJ8_AEL-iyBa-227" target="fuQmgK-MwJ8_AEL-iyBa-230" edge="1">
          <mxGeometry relative="1" as="geometry" />
        </mxCell>
        <mxCell id="fuQmgK-MwJ8_AEL-iyBa-222" value="" style="edgeStyle=orthogonalEdgeStyle;rounded=0;orthogonalLoop=1;jettySize=auto;html=1;endArrow=open;endFill=0;entryX=1;entryY=0.5;entryDx=0;entryDy=0;" parent="fuQmgK-MwJ8_AEL-iyBa-109" source="fuQmgK-MwJ8_AEL-iyBa-219" target="fuQmgK-MwJ8_AEL-iyBa-223" edge="1">
          <mxGeometry relative="1" as="geometry">
            <mxPoint x="-134.5" y="610" as="targetPoint" />
          </mxGeometry>
        </mxCell>
        <mxCell id="fuQmgK-MwJ8_AEL-iyBa-219" value="Request confirmation for update" style="rounded=1;whiteSpace=wrap;html=1;shadow=0;comic=0;labelBackgroundColor=none;strokeWidth=1;fontFamily=Verdana;fontSize=12;align=center;arcSize=50;" parent="fuQmgK-MwJ8_AEL-iyBa-109" vertex="1">
          <mxGeometry x="48.5" y="586.5" width="117" height="47" as="geometry" />
        </mxCell>
        <mxCell id="fuQmgK-MwJ8_AEL-iyBa-230" value="Update user info in record" style="rounded=1;whiteSpace=wrap;html=1;shadow=0;comic=0;labelBackgroundColor=none;strokeWidth=1;fontFamily=Verdana;fontSize=12;align=center;arcSize=50;" parent="fuQmgK-MwJ8_AEL-iyBa-109" vertex="1">
          <mxGeometry x="59.5" y="694.5" width="95" height="30" as="geometry" />
        </mxCell>
        <mxCell id="yvTjL0ZP2NTr1M3KiWXE-87" value="Not&amp;nbsp; found" style="text;html=1;strokeColor=none;fillColor=none;align=center;verticalAlign=middle;whiteSpace=wrap;rounded=0;" vertex="1" parent="fuQmgK-MwJ8_AEL-iyBa-109">
          <mxGeometry x="227.25" y="1790" width="62.75" height="30" as="geometry" />
        </mxCell>
        <mxCell id="fuQmgK-MwJ8_AEL-iyBa-280" value="Existing email" style="text;html=1;strokeColor=none;fillColor=none;align=center;verticalAlign=middle;whiteSpace=wrap;rounded=0;" parent="fuQmgK-MwJ8_AEL-iyBa-109" vertex="1">
          <mxGeometry x="215" y="586.5" width="80" height="20" as="geometry" />
        </mxCell>
        <mxCell id="fuQmgK-MwJ8_AEL-iyBa-254" value="Update password" style="rounded=1;whiteSpace=wrap;html=1;shadow=0;comic=0;labelBackgroundColor=none;strokeWidth=1;fontFamily=Verdana;fontSize=12;align=center;arcSize=50;" parent="fuQmgK-MwJ8_AEL-iyBa-109" vertex="1">
          <mxGeometry x="-185.75" y="1018" width="100" height="40" as="geometry" />
        </mxCell>
        <mxCell id="fuQmgK-MwJ8_AEL-iyBa-255" value="" style="edgeStyle=orthogonalEdgeStyle;rounded=0;orthogonalLoop=1;jettySize=auto;html=1;endArrow=open;endFill=0;" parent="fuQmgK-MwJ8_AEL-iyBa-109" source="fuQmgK-MwJ8_AEL-iyBa-253" target="fuQmgK-MwJ8_AEL-iyBa-254" edge="1">
          <mxGeometry relative="1" as="geometry" />
        </mxCell>
        <mxCell id="fuQmgK-MwJ8_AEL-iyBa-253" value="Request password change" style="rounded=1;whiteSpace=wrap;html=1;shadow=0;comic=0;labelBackgroundColor=none;strokeWidth=1;fontFamily=Verdana;fontSize=12;align=center;arcSize=50;" parent="fuQmgK-MwJ8_AEL-iyBa-109" vertex="1">
          <mxGeometry x="117.75" y="1018" width="100" height="40" as="geometry" />
        </mxCell>
        <mxCell id="fuQmgK-MwJ8_AEL-iyBa-268" value="" style="edgeStyle=orthogonalEdgeStyle;rounded=0;orthogonalLoop=1;jettySize=auto;html=1;endArrow=open;endFill=0;" parent="fuQmgK-MwJ8_AEL-iyBa-109" source="fuQmgK-MwJ8_AEL-iyBa-264" edge="1">
          <mxGeometry relative="1" as="geometry">
            <mxPoint x="168" y="1060" as="targetPoint" />
          </mxGeometry>
        </mxCell>
        <mxCell id="fuQmgK-MwJ8_AEL-iyBa-273" value="" style="edgeStyle=orthogonalEdgeStyle;rounded=0;orthogonalLoop=1;jettySize=auto;html=1;endArrow=open;endFill=0;exitX=0;exitY=0.5;exitDx=0;exitDy=0;" parent="fuQmgK-MwJ8_AEL-iyBa-109" edge="1" source="fuQmgK-MwJ8_AEL-iyBa-271">
          <mxGeometry relative="1" as="geometry">
            <mxPoint x="156" y="1790" as="sourcePoint" />
            <mxPoint x="140" y="1060" as="targetPoint" />
            <Array as="points">
              <mxPoint x="140" y="1820" />
            </Array>
          </mxGeometry>
        </mxCell>
        <mxCell id="fuQmgK-MwJ8_AEL-iyBa-240" value="" style="edgeStyle=orthogonalEdgeStyle;rounded=0;orthogonalLoop=1;jettySize=auto;html=1;endArrow=open;endFill=0;" parent="fuQmgK-MwJ8_AEL-iyBa-109" source="fuQmgK-MwJ8_AEL-iyBa-237" edge="1">
          <mxGeometry relative="1" as="geometry">
            <mxPoint x="325" y="880" as="targetPoint" />
          </mxGeometry>
        </mxCell>
        <mxCell id="fuQmgK-MwJ8_AEL-iyBa-250" value="" style="edgeStyle=orthogonalEdgeStyle;rounded=0;orthogonalLoop=1;jettySize=auto;html=1;endArrow=open;endFill=0;" parent="fuQmgK-MwJ8_AEL-iyBa-109" source="fuQmgK-MwJ8_AEL-iyBa-245" edge="1">
          <mxGeometry relative="1" as="geometry">
            <mxPoint x="329.75" y="1006" as="targetPoint" />
          </mxGeometry>
        </mxCell>
        <mxCell id="fuQmgK-MwJ8_AEL-iyBa-252" value="" style="edgeStyle=orthogonalEdgeStyle;rounded=0;orthogonalLoop=1;jettySize=auto;html=1;endArrow=open;endFill=0;" parent="fuQmgK-MwJ8_AEL-iyBa-109" source="fuQmgK-MwJ8_AEL-iyBa-248" edge="1">
          <mxGeometry relative="1" as="geometry">
            <mxPoint x="214.75" y="1038" as="targetPoint" />
          </mxGeometry>
        </mxCell>
        <mxCell id="fuQmgK-MwJ8_AEL-iyBa-257" value="" style="edgeStyle=orthogonalEdgeStyle;rounded=0;orthogonalLoop=1;jettySize=auto;html=1;endArrow=open;endFill=0;entryX=0;entryY=0.5;entryDx=0;entryDy=0;" parent="fuQmgK-MwJ8_AEL-iyBa-109" source="fuQmgK-MwJ8_AEL-iyBa-254" target="fuQmgK-MwJ8_AEL-iyBa-237" edge="1">
          <mxGeometry relative="1" as="geometry">
            <mxPoint x="-135.75" y="938" as="targetPoint" />
            <Array as="points">
              <mxPoint x="-135.25" y="780" />
            </Array>
          </mxGeometry>
        </mxCell>
        <mxCell id="fuQmgK-MwJ8_AEL-iyBa-261" value="" style="edgeStyle=orthogonalEdgeStyle;rounded=0;orthogonalLoop=1;jettySize=auto;html=1;endArrow=open;endFill=0;" parent="fuQmgK-MwJ8_AEL-iyBa-109" source="fuQmgK-MwJ8_AEL-iyBa-248" edge="1">
          <mxGeometry relative="1" as="geometry">
            <mxPoint x="329.75" y="1148" as="targetPoint" />
          </mxGeometry>
        </mxCell>
        <mxCell id="fuQmgK-MwJ8_AEL-iyBa-279" value="Not&amp;nbsp; found" style="text;html=1;strokeColor=none;fillColor=none;align=center;verticalAlign=middle;whiteSpace=wrap;rounded=0;" parent="fuQmgK-MwJ8_AEL-iyBa-109" vertex="1">
          <mxGeometry x="227.25" y="1530" width="62.75" height="30" as="geometry" />
        </mxCell>
        <mxCell id="yvTjL0ZP2NTr1M3KiWXE-86" value="Not&amp;nbsp; found" style="text;html=1;strokeColor=none;fillColor=none;align=center;verticalAlign=middle;whiteSpace=wrap;rounded=0;" vertex="1" parent="fuQmgK-MwJ8_AEL-iyBa-109">
          <mxGeometry x="229.75" y="1270" width="62.75" height="30" as="geometry" />
        </mxCell>
        <mxCell id="yvTjL0ZP2NTr1M3KiWXE-2" value="less than 8 characters" style="text;html=1;strokeColor=none;fillColor=none;align=center;verticalAlign=middle;whiteSpace=wrap;rounded=0;" vertex="1" parent="fuQmgK-MwJ8_AEL-iyBa-109">
          <mxGeometry x="221.13" y="1000" width="80" height="40" as="geometry" />
        </mxCell>
        <mxCell id="fuQmgK-MwJ8_AEL-iyBa-281" value="Not existing email" style="text;html=1;strokeColor=none;fillColor=none;align=center;verticalAlign=middle;whiteSpace=wrap;rounded=0;" parent="fuQmgK-MwJ8_AEL-iyBa-109" vertex="1">
          <mxGeometry x="252.75" y="650" width="80" height="30" as="geometry" />
        </mxCell>
        <mxCell id="fuQmgK-MwJ8_AEL-iyBa-263" value="" style="edgeStyle=orthogonalEdgeStyle;rounded=0;orthogonalLoop=1;jettySize=auto;html=1;endArrow=open;endFill=0;" parent="fuQmgK-MwJ8_AEL-iyBa-109" source="fuQmgK-MwJ8_AEL-iyBa-246" edge="1">
          <mxGeometry relative="1" as="geometry">
            <mxPoint x="327.5" y="1530" as="targetPoint" />
          </mxGeometry>
        </mxCell>
        <mxCell id="fuQmgK-MwJ8_AEL-iyBa-266" value="" style="edgeStyle=orthogonalEdgeStyle;rounded=0;orthogonalLoop=1;jettySize=auto;html=1;endArrow=open;endFill=0;" parent="fuQmgK-MwJ8_AEL-iyBa-109" source="fuQmgK-MwJ8_AEL-iyBa-264" edge="1">
          <mxGeometry relative="1" as="geometry">
            <mxPoint x="327.5" y="1670" as="targetPoint" />
          </mxGeometry>
        </mxCell>
        <mxCell id="fuQmgK-MwJ8_AEL-iyBa-270" value="" style="edgeStyle=orthogonalEdgeStyle;rounded=0;orthogonalLoop=1;jettySize=auto;html=1;endArrow=open;endFill=0;" parent="fuQmgK-MwJ8_AEL-iyBa-109" source="fuQmgK-MwJ8_AEL-iyBa-247" edge="1">
          <mxGeometry relative="1" as="geometry">
            <mxPoint x="330" y="1790" as="targetPoint" />
          </mxGeometry>
        </mxCell>
        <mxCell id="fuQmgK-MwJ8_AEL-iyBa-271" value="" style="rhombus;whiteSpace=wrap;html=1;" parent="fuQmgK-MwJ8_AEL-iyBa-109" vertex="1">
          <mxGeometry x="295.25" y="1790" width="70" height="60" as="geometry" />
        </mxCell>
        <mxCell id="fuQmgK-MwJ8_AEL-iyBa-264" value="" style="rhombus;whiteSpace=wrap;html=1;" parent="fuQmgK-MwJ8_AEL-iyBa-109" vertex="1">
          <mxGeometry x="292.5" y="1530" width="70" height="60" as="geometry" />
        </mxCell>
        <mxCell id="fuQmgK-MwJ8_AEL-iyBa-246" value="Check for uppercase" style="rounded=1;whiteSpace=wrap;html=1;shadow=0;comic=0;labelBackgroundColor=none;strokeWidth=1;fontFamily=Verdana;fontSize=12;align=center;arcSize=50;" parent="fuQmgK-MwJ8_AEL-iyBa-109" vertex="1">
          <mxGeometry x="277.5" y="1410" width="100" height="40" as="geometry" />
        </mxCell>
        <mxCell id="fuQmgK-MwJ8_AEL-iyBa-285" value="" style="ellipse;html=1;shape=endState;fillColor=#000000;" parent="fuQmgK-MwJ8_AEL-iyBa-109" vertex="1">
          <mxGeometry x="307" y="2042" width="30" height="30" as="geometry" />
        </mxCell>
        <mxCell id="fuQmgK-MwJ8_AEL-iyBa-284" value="Add user info to record" style="rounded=1;whiteSpace=wrap;html=1;shadow=0;comic=0;labelBackgroundColor=none;strokeWidth=1;fontFamily=Verdana;fontSize=12;align=center;arcSize=50;" parent="fuQmgK-MwJ8_AEL-iyBa-109" vertex="1">
          <mxGeometry x="278.5" y="1930" width="100" height="40" as="geometry" />
        </mxCell>
        <mxCell id="fuQmgK-MwJ8_AEL-iyBa-247" value="Check for digit" style="rounded=1;whiteSpace=wrap;html=1;shadow=0;comic=0;labelBackgroundColor=none;strokeWidth=1;fontFamily=Verdana;fontSize=12;align=center;arcSize=50;" parent="fuQmgK-MwJ8_AEL-iyBa-109" vertex="1">
          <mxGeometry x="280" y="1670" width="100" height="40" as="geometry" />
        </mxCell>
        <mxCell id="yvTjL0ZP2NTr1M3KiWXE-1" value="Check for lowercase" style="rounded=1;whiteSpace=wrap;html=1;shadow=0;comic=0;labelBackgroundColor=none;strokeWidth=1;fontFamily=Verdana;fontSize=12;align=center;arcSize=50;" vertex="1" parent="fuQmgK-MwJ8_AEL-iyBa-109">
          <mxGeometry x="279.75" y="1150" width="100" height="40" as="geometry" />
        </mxCell>
        <mxCell id="fuQmgK-MwJ8_AEL-iyBa-245" value="Check length" style="rounded=1;whiteSpace=wrap;html=1;shadow=0;comic=0;labelBackgroundColor=none;strokeWidth=1;fontFamily=Verdana;fontSize=12;align=center;arcSize=50;" parent="fuQmgK-MwJ8_AEL-iyBa-109" vertex="1">
          <mxGeometry x="279.75" y="880" width="100" height="40" as="geometry" />
        </mxCell>
        <mxCell id="fuQmgK-MwJ8_AEL-iyBa-237" value="Verify password strength" style="rounded=1;whiteSpace=wrap;html=1;shadow=0;comic=0;labelBackgroundColor=none;strokeWidth=1;fontFamily=Verdana;fontSize=12;align=center;arcSize=50;" parent="fuQmgK-MwJ8_AEL-iyBa-109" vertex="1">
          <mxGeometry x="274.75" y="760" width="100" height="40" as="geometry" />
        </mxCell>
        <mxCell id="yvTjL0ZP2NTr1M3KiWXE-4" value="" style="rhombus;whiteSpace=wrap;html=1;" vertex="1" parent="fuQmgK-MwJ8_AEL-iyBa-109">
          <mxGeometry x="297.5" y="1270" width="70" height="60" as="geometry" />
        </mxCell>
        <mxCell id="fuQmgK-MwJ8_AEL-iyBa-248" value="" style="rhombus;whiteSpace=wrap;html=1;" parent="fuQmgK-MwJ8_AEL-iyBa-109" vertex="1">
          <mxGeometry x="294.75" y="1008" width="70" height="60" as="geometry" />
        </mxCell>
        <mxCell id="fuQmgK-MwJ8_AEL-iyBa-182" value="Verify user role" style="rounded=1;whiteSpace=wrap;html=1;shadow=0;comic=0;labelBackgroundColor=none;strokeWidth=1;fontFamily=Verdana;fontSize=12;align=center;arcSize=50;" parent="fuQmgK-MwJ8_AEL-iyBa-109" vertex="1">
          <mxGeometry x="280" y="130" width="100" height="30" as="geometry" />
        </mxCell>
        <mxCell id="fuQmgK-MwJ8_AEL-iyBa-190" value="Allow editing" style="rounded=1;whiteSpace=wrap;html=1;shadow=0;comic=0;labelBackgroundColor=none;strokeWidth=1;fontFamily=Verdana;fontSize=12;align=center;arcSize=50;" parent="fuQmgK-MwJ8_AEL-iyBa-109" vertex="1">
          <mxGeometry x="280" y="380" width="100" height="30" as="geometry" />
        </mxCell>
        <mxCell id="fuQmgK-MwJ8_AEL-iyBa-205" value="Verify user&#39;s email" style="rounded=1;whiteSpace=wrap;html=1;shadow=0;comic=0;labelBackgroundColor=none;strokeWidth=1;fontFamily=Verdana;fontSize=12;align=center;arcSize=50;" parent="fuQmgK-MwJ8_AEL-iyBa-109" vertex="1">
          <mxGeometry x="285" y="470" width="95" height="30" as="geometry" />
        </mxCell>
        <mxCell id="fuQmgK-MwJ8_AEL-iyBa-213" value="" style="rhombus;whiteSpace=wrap;html=1;" parent="fuQmgK-MwJ8_AEL-iyBa-109" vertex="1">
          <mxGeometry x="297.5" y="580" width="70" height="60" as="geometry" />
        </mxCell>
        <mxCell id="yvTjL0ZP2NTr1M3KiWXE-81" value="Found" style="text;html=1;strokeColor=none;fillColor=none;align=center;verticalAlign=middle;whiteSpace=wrap;rounded=0;" vertex="1" parent="fuQmgK-MwJ8_AEL-iyBa-109">
          <mxGeometry x="317.25" y="1850" width="62.75" height="30" as="geometry" />
        </mxCell>
        <mxCell id="yvTjL0ZP2NTr1M3KiWXE-75" value="Found" style="text;html=1;strokeColor=none;fillColor=none;align=center;verticalAlign=middle;whiteSpace=wrap;rounded=0;" vertex="1" parent="fuQmgK-MwJ8_AEL-iyBa-109">
          <mxGeometry x="320" y="1330" width="62.75" height="30" as="geometry" />
        </mxCell>
        <mxCell id="yvTjL0ZP2NTr1M3KiWXE-80" value="Found" style="text;html=1;strokeColor=none;fillColor=none;align=center;verticalAlign=middle;whiteSpace=wrap;rounded=0;" vertex="1" parent="fuQmgK-MwJ8_AEL-iyBa-109">
          <mxGeometry x="320" y="1590" width="62.75" height="30" as="geometry" />
        </mxCell>
        <mxCell id="yvTjL0ZP2NTr1M3KiWXE-3" value="equal to or more than 8 characters" style="text;html=1;strokeColor=none;fillColor=none;align=center;verticalAlign=middle;whiteSpace=wrap;rounded=0;" vertex="1" parent="fuQmgK-MwJ8_AEL-iyBa-109">
          <mxGeometry x="330" y="1080" width="60" height="50" as="geometry" />
        </mxCell>
        <mxCell id="fuQmgK-MwJ8_AEL-iyBa-191" value="Deny editing" style="rounded=1;whiteSpace=wrap;html=1;shadow=0;comic=0;labelBackgroundColor=none;strokeWidth=1;fontFamily=Verdana;fontSize=12;align=center;arcSize=50;" parent="fuQmgK-MwJ8_AEL-iyBa-109" vertex="1">
          <mxGeometry x="430" y="380" width="100" height="30" as="geometry" />
        </mxCell>
        <mxCell id="fuQmgK-MwJ8_AEL-iyBa-192" value="Admin" style="text;html=1;strokeColor=none;fillColor=none;align=center;verticalAlign=middle;whiteSpace=wrap;rounded=0;" parent="fuQmgK-MwJ8_AEL-iyBa-109" vertex="1">
          <mxGeometry x="280" y="310" width="40" height="20" as="geometry" />
        </mxCell>
        <mxCell id="fuQmgK-MwJ8_AEL-iyBa-187" value="" style="rhombus;whiteSpace=wrap;html=1;" parent="fuQmgK-MwJ8_AEL-iyBa-109" vertex="1">
          <mxGeometry x="295" y="240" width="70" height="60" as="geometry" />
        </mxCell>
        <mxCell id="fuQmgK-MwJ8_AEL-iyBa-193" value="Not Admin" style="text;html=1;strokeColor=none;fillColor=none;align=center;verticalAlign=middle;whiteSpace=wrap;rounded=0;" parent="fuQmgK-MwJ8_AEL-iyBa-109" vertex="1">
          <mxGeometry x="360" y="280" width="40" height="20" as="geometry" />
        </mxCell>
        <mxCell id="fuQmgK-MwJ8_AEL-iyBa-194" value="" style="endArrow=none;html=1;exitX=1;exitY=0.5;exitDx=0;exitDy=0;" parent="fuQmgK-MwJ8_AEL-iyBa-109" source="fuQmgK-MwJ8_AEL-iyBa-187" edge="1">
          <mxGeometry width="50" height="50" relative="1" as="geometry">
            <mxPoint x="370" y="270" as="sourcePoint" />
            <mxPoint x="479" y="270" as="targetPoint" />
          </mxGeometry>
        </mxCell>
        <mxCell id="fuQmgK-MwJ8_AEL-iyBa-195" value="" style="endArrow=open;html=1;entryX=0.5;entryY=0;entryDx=0;entryDy=0;endFill=0;" parent="fuQmgK-MwJ8_AEL-iyBa-109" target="fuQmgK-MwJ8_AEL-iyBa-191" edge="1">
          <mxGeometry width="50" height="50" relative="1" as="geometry">
            <mxPoint x="480" y="270" as="sourcePoint" />
            <mxPoint x="510" y="290" as="targetPoint" />
          </mxGeometry>
        </mxCell>
        <mxCell id="fuQmgK-MwJ8_AEL-iyBa-217" value="" style="edgeStyle=orthogonalEdgeStyle;rounded=0;orthogonalLoop=1;jettySize=auto;html=1;endArrow=open;endFill=0;entryX=1;entryY=0.5;entryDx=0;entryDy=0;" parent="fuQmgK-MwJ8_AEL-iyBa-109" source="fuQmgK-MwJ8_AEL-iyBa-213" edge="1">
          <mxGeometry relative="1" as="geometry">
            <mxPoint x="166" y="610" as="targetPoint" />
          </mxGeometry>
        </mxCell>
        <mxCell id="fuQmgK-MwJ8_AEL-iyBa-204" value="" style="edgeStyle=orthogonalEdgeStyle;rounded=0;orthogonalLoop=1;jettySize=auto;html=1;endArrow=open;endFill=0;" parent="fuQmgK-MwJ8_AEL-iyBa-109" edge="1">
          <mxGeometry relative="1" as="geometry">
            <mxPoint x="340" y="2060" as="targetPoint" />
            <Array as="points">
              <mxPoint x="473" y="2060" />
            </Array>
            <mxPoint x="473" y="410" as="sourcePoint" />
          </mxGeometry>
        </mxCell>
        <mxCell id="vyjxsH1c9zluWixGzXfJ-2" value="" style="edgeStyle=orthogonalEdgeStyle;rounded=0;orthogonalLoop=1;jettySize=auto;html=1;endArrow=open;endFill=0;entryX=0;entryY=0;entryDx=0;entryDy=0;" parent="fuQmgK-MwJ8_AEL-iyBa-109" source="fuQmgK-MwJ8_AEL-iyBa-230" target="fuQmgK-MwJ8_AEL-iyBa-285" edge="1">
          <mxGeometry relative="1" as="geometry">
            <mxPoint x="-180" y="1770" as="targetPoint" />
            <Array as="points">
              <mxPoint x="240" y="710" />
              <mxPoint x="240" y="760" />
              <mxPoint x="-200" y="760" />
              <mxPoint x="-200" y="2046" />
            </Array>
          </mxGeometry>
        </mxCell>
        <mxCell id="yvTjL0ZP2NTr1M3KiWXE-83" value="" style="edgeStyle=orthogonalEdgeStyle;rounded=0;orthogonalLoop=1;jettySize=auto;html=1;endArrow=open;endFill=0;entryX=0.5;entryY=0;entryDx=0;entryDy=0;" edge="1" parent="fuQmgK-MwJ8_AEL-iyBa-109" source="fuQmgK-MwJ8_AEL-iyBa-271" target="fuQmgK-MwJ8_AEL-iyBa-284">
          <mxGeometry relative="1" as="geometry">
            <mxPoint x="328" y="1930" as="targetPoint" />
            <Array as="points">
              <mxPoint x="329" y="1890" />
            </Array>
          </mxGeometry>
        </mxCell>
        <mxCell id="fuQmgK-MwJ8_AEL-iyBa-186" value="" style="edgeStyle=orthogonalEdgeStyle;rounded=0;orthogonalLoop=1;jettySize=auto;html=1;endArrow=open;endFill=0;entryX=0.5;entryY=0;entryDx=0;entryDy=0;" parent="fuQmgK-MwJ8_AEL-iyBa-109" source="fuQmgK-MwJ8_AEL-iyBa-182" edge="1" target="fuQmgK-MwJ8_AEL-iyBa-187">
          <mxGeometry relative="1" as="geometry">
            <mxPoint x="310" y="240" as="targetPoint" />
          </mxGeometry>
        </mxCell>
        <mxCell id="fuQmgK-MwJ8_AEL-iyBa-189" value="" style="edgeStyle=orthogonalEdgeStyle;rounded=0;orthogonalLoop=1;jettySize=auto;html=1;endArrow=open;endFill=0;entryX=0.5;entryY=0;entryDx=0;entryDy=0;" parent="fuQmgK-MwJ8_AEL-iyBa-109" source="fuQmgK-MwJ8_AEL-iyBa-187" edge="1" target="fuQmgK-MwJ8_AEL-iyBa-190">
          <mxGeometry relative="1" as="geometry">
            <mxPoint x="310" y="380" as="targetPoint" />
          </mxGeometry>
        </mxCell>
        <mxCell id="fuQmgK-MwJ8_AEL-iyBa-215" value="" style="edgeStyle=orthogonalEdgeStyle;rounded=0;orthogonalLoop=1;jettySize=auto;html=1;endArrow=open;endFill=0;entryX=0.5;entryY=0;entryDx=0;entryDy=0;" parent="fuQmgK-MwJ8_AEL-iyBa-109" source="fuQmgK-MwJ8_AEL-iyBa-205" edge="1" target="fuQmgK-MwJ8_AEL-iyBa-213">
          <mxGeometry relative="1" as="geometry">
            <mxPoint x="312.5" y="580" as="targetPoint" />
          </mxGeometry>
        </mxCell>
        <mxCell id="fuQmgK-MwJ8_AEL-iyBa-235" value="" style="edgeStyle=orthogonalEdgeStyle;rounded=0;orthogonalLoop=1;jettySize=auto;html=1;endArrow=open;endFill=0;" parent="fuQmgK-MwJ8_AEL-iyBa-109" source="fuQmgK-MwJ8_AEL-iyBa-213" edge="1">
          <mxGeometry relative="1" as="geometry">
            <mxPoint x="334" y="760" as="targetPoint" />
            <Array as="points">
              <mxPoint x="333" y="700" />
              <mxPoint x="334" y="700" />
            </Array>
          </mxGeometry>
        </mxCell>
        <mxCell id="fuQmgK-MwJ8_AEL-iyBa-180" value="" style="endArrow=open;html=1;endFill=0;" parent="1" source="fuQmgK-MwJ8_AEL-iyBa-83" edge="1">
          <mxGeometry width="50" height="50" relative="1" as="geometry">
            <mxPoint x="530" y="350" as="sourcePoint" />
            <mxPoint x="240" y="160" as="targetPoint" />
          </mxGeometry>
        </mxCell>
        <mxCell id="fuQmgK-MwJ8_AEL-iyBa-233" value="" style="edgeStyle=orthogonalEdgeStyle;rounded=0;orthogonalLoop=1;jettySize=auto;html=1;endArrow=open;endFill=0;entryX=0;entryY=0.5;entryDx=0;entryDy=0;" parent="1" edge="1" target="fuQmgK-MwJ8_AEL-iyBa-285">
          <mxGeometry relative="1" as="geometry">
            <mxPoint x="265.5" y="640" as="sourcePoint" />
            <mxPoint x="720" y="2037" as="targetPoint" />
            <Array as="points">
              <mxPoint x="200" y="640" />
              <mxPoint x="200" y="2087" />
            </Array>
          </mxGeometry>
        </mxCell>
        <mxCell id="fuQmgK-MwJ8_AEL-iyBa-287" value="" style="edgeStyle=orthogonalEdgeStyle;rounded=0;orthogonalLoop=1;jettySize=auto;html=1;endArrow=open;endFill=0;" parent="1" source="fuQmgK-MwJ8_AEL-iyBa-284" edge="1">
          <mxGeometry relative="1" as="geometry">
            <mxPoint x="789" y="2070" as="targetPoint" />
          </mxGeometry>
        </mxCell>
        <mxCell id="yvTjL0ZP2NTr1M3KiWXE-77" value="" style="edgeStyle=orthogonalEdgeStyle;rounded=0;orthogonalLoop=1;jettySize=auto;html=1;endArrow=open;endFill=0;" edge="1" parent="1" source="yvTjL0ZP2NTr1M3KiWXE-1">
          <mxGeometry relative="1" as="geometry">
            <mxPoint x="789.75" y="1300" as="targetPoint" />
          </mxGeometry>
        </mxCell>
        <mxCell id="yvTjL0ZP2NTr1M3KiWXE-79" value="" style="edgeStyle=orthogonalEdgeStyle;rounded=0;orthogonalLoop=1;jettySize=auto;html=1;endArrow=open;endFill=0;" edge="1" parent="1" source="yvTjL0ZP2NTr1M3KiWXE-4">
          <mxGeometry relative="1" as="geometry">
            <mxPoint x="792.5" y="1440" as="targetPoint" />
          </mxGeometry>
        </mxCell>
        <mxCell id="yvTjL0ZP2NTr1M3KiWXE-85" value="" style="edgeStyle=orthogonalEdgeStyle;rounded=0;orthogonalLoop=1;jettySize=auto;html=1;endArrow=open;endFill=0;" edge="1" parent="1" source="yvTjL0ZP2NTr1M3KiWXE-4">
          <mxGeometry relative="1" as="geometry">
            <mxPoint x="640" y="1090" as="targetPoint" />
          </mxGeometry>
        </mxCell>
      </root>
    </mxGraphModel>
  </diagram>
</mxfile>
